/* XPM */
static char * file_monitor_xpm[] = {
"32 32 108 2",
"  	c None",
". 	c #8D8F8B",
"+ 	c #888A85",
"@ 	c #8B8D89",
"# 	c #FFFFFF",
"$ 	c #8C8E89",
"% 	c #F8F8F7",
"& 	c #F7F7F6",
"* 	c #8C8E88",
"= 	c #F6F6F5",
"- 	c #8B8D88",
"; 	c #999999",
"> 	c #F5F5F4",
", 	c #F5F5F5",
"' 	c #F4F4F3",
") 	c #F6F6F6",
"! 	c #F4F4F4",
"~ 	c #F3F3F2",
"{ 	c #F2F2F1",
"] 	c #F2F2F2",
"^ 	c #F1F1F0",
"/ 	c #F3F3F3",
"( 	c #F1F1F1",
"_ 	c #F0F0EF",
": 	c #EFEFEF",
"< 	c #EFEFEE",
"[ 	c #F0F0F0",
"} 	c #EEEEEE",
"| 	c #EEEEED",
"1 	c #EDEDED",
"2 	c #EDEDEC",
"3 	c #9C9D9A",
"4 	c #ECECEC",
"5 	c #ECECEB",
"6 	c #5E605C",
"7 	c #7C7E7A",
"8 	c #E6E6E5",
"9 	c #EBEBEB",
"0 	c #EBEBEA",
"a 	c #60625E",
"b 	c #555753",
"c 	c #6C6D6A",
"d 	c #D7D8D6",
"e 	c #EAEAEA",
"f 	c #E9E9E9",
"g 	c #EAEAE8",
"h 	c #E7E8E7",
"i 	c #E7E7E6",
"j 	c #666764",
"k 	c #5F615D",
"l 	c #C5C6C5",
"m 	c #E8E8E8",
"n 	c #BEBEBC",
"o 	c #A4A5A3",
"p 	c #8C8D8B",
"q 	c #737572",
"r 	c #5B5D59",
"s 	c #585A56",
"t 	c #AFB0AE",
"u 	c #E7E7E7",
"v 	c #D6D7D5",
"w 	c #BDBDBC",
"x 	c #979896",
"y 	c #D5D6D5",
"z 	c #BDBDBB",
"A 	c #A3A4A2",
"B 	c #8B8C8A",
"C 	c #81827F",
"D 	c #DFDFDF",
"E 	c #D4D5D4",
"F 	c #BCBCBA",
"G 	c #737571",
"H 	c #E6E6E6",
"I 	c #E6E6E4",
"J 	c #D3D4D3",
"K 	c #BBBBBA",
"L 	c #A2A3A1",
"M 	c #727471",
"N 	c #767875",
"O 	c #D9DAD8",
"P 	c #E5E5E4",
"Q 	c #E5E5E3",
"R 	c #D2D3D2",
"S 	c #BBBBB9",
"T 	c #8A8B89",
"U 	c #8B8D8A",
"V 	c #E2E2E1",
"W 	c #E4E4E2",
"X 	c #D1D2D1",
"Y 	c #BABAB8",
"Z 	c #A1A2A0",
"` 	c #565854",
" .	c #A3A4A1",
"..	c #E4E4E1",
"+.	c #5D5F5B",
"@.	c #E3E3E0",
"#.	c #686A66",
"$.	c #CCCCCB",
"%.	c #E3E3E1",
"&.	c #E3E3DF",
"*.	c #5E605B",
"=.	c #777975",
"-.	c #D9D9D8",
";.	c #E2E2DF",
">.	c #E2E2DE",
",.	c #959693",
"'.	c #878A85",
").	c #878985",
"                                                                ",
"      . + + + + + + + + + + + + + + + + + + + + + + + + @       ",
"      + # # # # # # # # # # # # # # # # # # # # # # # # $       ",
"      + # % % % % % % % % % % % % % % % % % % % % % & # *       ",
"      + # % % % % % % % % % % % % % % % % % % % % & = # -       ",
"      + # % % % % % % % % % % % % ; ; ; ; ; ; ; ; ; > # -       ",
"      + # % % % % % % % % % % % % % % % % % & = , > ' # -       ",
"      + # % % % % % % % % % % % % % % % & ) = > ! ' ~ # -       ",
"      + # % % % % % % % % % % % % ; ; ; ; ; ; ; ; ; { # -       ",
"      + # % % % % % % % % % % % % & = = > ! ' ~ ] { ^ # -       ",
"      + # % % % % % % % % % % & & = > > ' / ~ { ( ^ _ # -       ",
"      + # % % % % % % % % % & = = ; ; ; ; ; ; ; ; : < # -       ",
"      + # % % % % % % % & & = > > ' ~ ~ { ( [ _ : } | # -       ",
"      + # % % % % % % & = = > ' / ~ { ( ^ [ : < } 1 2 # -       ",
"      + # % % % % & & = > ! ' 3 } { ^ [ _ : } | 1 4 5 # -       ",
"      + # % % % & = , > ' / ~ 6 7 8 _ : < } 1 2 4 9 0 # -       ",
"      + # % & ) = > ! ' ~ ] { a b c d } | 1 4 5 9 e f # -       ",
"      + # & = , ~ _ } 2 g h i j b b k l 2 4 9 e e f m # -       ",
"      + # = > : d n o p q r b b b b b s t 9 e f f m u # -       ",
"      + # > ' } v w o p q r b b b b b b b x u m m u i # -       ",
"      + # ' ~ 1 y z A B q r b b b b b b b b C D u i 8 # -       ",
"      + # ~ { 4 E F A B G r b b b b b b b b b C H 8 I # -       ",
"      + # ( ^ 9 J K L B M r b b b b b b b b N O 8 P Q # -       ",
"      + # [ _ e R S L T M r b b b b b b b U V I P Q W # -       ",
"      + # : < f X Y Z T M r b b b b b `  .8 P Q Q W ..# -       ",
"      + # } | 1 4 5 9 e f f m 6 b b +.S I P Q W W ..@.# -       ",
"      + # 1 2 4 9 e e f m m u 6 b #.$.P Q Q W ..%.@.&.# -       ",
"      + # 4 9 9 e f f m u u i *.=.-.Q Q W W ..@.@.;.>.# -       ",
"      + # 9 e e f m m u i H 8 ,.V Q Q W ..%.@.&.;.>.>.# -       ",
"      + # # # # # # # # # # # # # # # # # # # # # # # # -       ",
"      '.+ + + + + + + + + + + + + + + + + + + + + + + + ).      ",
"                                                                "};
